<svg xmlns="http://www.w3.org/2000/svg" xmlns:xlink="http://www.w3.org/1999/xlink" viewBox="0 0 440 440"><defs><mask id="a" x="114.684" y="115.068" width="211.324" height="211.324" maskUnits="userSpaceOnUse"><rect x="114.684" y="115.068" width="211.324" height="211.324" fill="#fff"/><path d="M237.142,181.318l-.9-.9h0l-.9-.9a.581.581,0,1,0-.821.821l.492.492-4.8,4.8a2.042,2.042,0,0,0-.981-.249H229.2a2.049,2.049,0,0,0-3.5-1.48l-.373.373v-.528a2.048,2.048,0,0,0-3.521-1.426,2.042,2.042,0,0,0-2.941,0,2.048,2.048,0,0,0-3.521,1.426v.528l-.373-.373a2.051,2.051,0,0,0-3.5,1.45v.03h-.03a2.038,2.038,0,0,0-1.023.275l-4.825-4.826.492-.492a.581.581,0,0,0-.821-.821l-.87.87c-.012.01-.025.019-.036.03s-.019.024-.029.036l-.87.87a.58.58,0,0,0,0,.821.579.579,0,0,0,.82,0l.493-.492,4.845,4.845a2.039,2.039,0,0,0-.226.935l0,.032a2.048,2.048,0,0,0-1.481,3.5l.373.373h-.527a2.049,2.049,0,0,0-1.427,3.522,2.043,2.043,0,0,0,0,2.94,2.049,2.049,0,0,0,1.427,3.521h.527l-.373.373a2.051,2.051,0,0,0,1.45,3.5l.031,0a2.062,2.062,0,0,0,.248,1.011l-5.289,5.289a.58.58,0,0,0,.82.821l5.289-5.289a2.048,2.048,0,0,0,.981.249h.031a2.046,2.046,0,0,0,2.048,2.08h0a2.037,2.037,0,0,0,1.45-.6l.373-.373v.528a2.048,2.048,0,0,0,3.521,1.425,2.042,2.042,0,0,0,2.941,0,2.048,2.048,0,0,0,3.521-1.425v-.528l.373.373a2.051,2.051,0,0,0,3.5-1.45v-.03h.03a2.039,2.039,0,0,0,.935-.226l5.266,5.265a.581.581,0,0,0,.82,0,.58.58,0,0,0,0-.821l-5.246-5.246a2.035,2.035,0,0,0,.275-1.024v-.031l.03,0a2.05,2.05,0,0,0,1.45-3.5l-.373-.374h.528a2.047,2.047,0,0,0,1.426-3.52,2.042,2.042,0,0,0,0-2.941,2.049,2.049,0,0,0-1.426-3.522h-.528l.373-.372a2.051,2.051,0,0,0-1.45-3.5h-.031a2.058,2.058,0,0,0-.248-1.01l4.8-4.8.493.492a.58.58,0,0,0,.82-.821Zm-13.865,1.532a.891.891,0,0,1,.89.89v1.689l-1.78,1.78V183.74A.891.891,0,0,1,223.277,182.85Zm-2.941,0a.891.891,0,0,1,.89.89v4.629l-1.78,1.78V183.74A.891.891,0,0,1,220.336,182.85Zm-3.83.89a.89.89,0,0,1,1.78,0v7.57l-1.78,1.78Zm-3.874,1.6a.89.89,0,0,1,1.519-.628l1.194,1.193v2.518l-2.452-2.453A.882.882,0,0,1,212.632,185.344Zm-2.08,2.08a.89.89,0,0,1,1.52-.629l3.172,3.172a.541.541,0,0,0,.1.079v1.281h-1.258l-3.274-3.274A.884.884,0,0,1,210.552,187.424Zm-1.818,2.709a.89.89,0,1,1,1.259-1.259l2.452,2.452h-2.517Zm-1.866,3.244a.891.891,0,0,1,.89-.89h7.587v1.763l-.017.017h-7.57A.891.891,0,0,1,206.868,193.377Zm0,2.941a.891.891,0,0,1,.89-.89h6.409l-1.78,1.78h-4.629A.891.891,0,0,1,206.868,196.318Zm.89,3.831a.891.891,0,0,1,0-1.781h3.468l-1.78,1.781Zm1.6,3.874a.891.891,0,0,1-.629-1.52l7.6-7.6h0l10.186-10.186a.89.89,0,1,1,1.258,1.259l-17.788,17.788A.884.884,0,0,1,209.363,204.023Zm8.032,5.763a.89.89,0,0,1-.889-.89v-1.688l1.779-1.781V208.9A.891.891,0,0,1,217.4,209.786Zm2.941,0a.891.891,0,0,1-.89-.89v-4.629l1.78-1.78V208.9A.891.891,0,0,1,220.336,209.786Zm3.831-.89a.89.89,0,1,1-1.78,0v-7.57l1.78-1.78Zm3.613-.975a.888.888,0,0,1-1.258,0l-1.13-1.13-.064.065V204.21l1.212,1.212h0l1.24,1.24.007.007a.89.89,0,0,1-.007,1.252Zm2.341-2.709a.89.89,0,0,1-1.519.629l-.009-.008-1.232-1.231h0l-2.033-2.033v-1.259h1.259l3.273,3.274A.884.884,0,0,1,230.121,205.212Zm1.818-2.709a.89.89,0,1,1-1.258,1.259l-.62-.62-.62-.62h0l-1.213-1.213h2.518Zm1.865-3.244a.891.891,0,0,1-.89.89h-7.586v-1.764l.017-.017h7.569A.892.892,0,0,1,233.8,199.259Zm0-2.941a.891.891,0,0,1-.89.89h-6.409l1.78-1.78h4.629A.891.891,0,0,1,233.8,196.318Zm-.89-3.831a.89.89,0,1,1,0,1.78h-3.468l1.78-1.78Zm-1.6-3.874a.89.89,0,0,1,.629,1.52L221.4,200.675h0l-7.245,7.245a.89.89,0,0,1-1.259-1.258l17.788-17.789A.888.888,0,0,1,231.31,188.613Zm-1.45-.56-17.789,17.788a.89.89,0,0,1-1.258-1.258h0L228.6,186.8a.89.89,0,1,1,1.259,1.258Z"/><path d="M189.957,231.093l1.78-7.587a5.976,5.976,0,0,1-1.869-.645h0v-.845h5.606v.845a4.053,4.053,0,0,1-.8.4,6.321,6.321,0,0,1-.823.244h0l-3.938,14.083-2.313.266-3.449-10.767-3.359,10.5-2.336.266-4.338-14.349a4.379,4.379,0,0,1-.867-.255,5.243,5.243,0,0,1-.757-.39h0v-.845H179.7v.845a6.08,6.08,0,0,1-.856.367,8.294,8.294,0,0,1-.99.278h0l2.069,7.853.467,2.892h.044l.779-3,2.959-9.232h1.312l3.159,9.121.757,2.892h.044Zm9.054-1.291h0a10.152,10.152,0,0,1,.49-3.214,7.21,7.21,0,0,1,1.446-2.559,6.535,6.535,0,0,1,2.358-1.679,8.114,8.114,0,0,1,3.226-.6h0a8.112,8.112,0,0,1,3.225.6,6.434,6.434,0,0,1,2.347,1.679,7.3,7.3,0,0,1,1.435,2.559,10.152,10.152,0,0,1,.49,3.214h0a10.158,10.158,0,0,1-.49,3.215,7.3,7.3,0,0,1-1.435,2.558,6.448,6.448,0,0,1-2.347,1.68,8.13,8.13,0,0,1-3.225.6h0a8.131,8.131,0,0,1-3.226-.6,6.549,6.549,0,0,1-2.358-1.68,7.214,7.214,0,0,1-1.446-2.558A10.158,10.158,0,0,1,199.011,229.8Zm3.782,0h0a14.558,14.558,0,0,0,.223,2.636,7.016,7.016,0,0,0,.7,2.092,3.834,3.834,0,0,0,1.224,1.379,3.135,3.135,0,0,0,1.791.5h0a2.627,2.627,0,0,0,1.624-.5,3.68,3.68,0,0,0,1.09-1.379,7.473,7.473,0,0,0,.612-2.092,17.15,17.15,0,0,0,.189-2.636h0a15.36,15.36,0,0,0-.212-2.636,7.228,7.228,0,0,0-.667-2.091,3.641,3.641,0,0,0-1.2-1.379,3.175,3.175,0,0,0-1.813-.5h0a2.834,2.834,0,0,0-1.713.5,3.487,3.487,0,0,0-1.1,1.379,7.27,7.27,0,0,0-.578,2.091A19.423,19.423,0,0,0,202.793,229.8Zm15.662,0h0a10.181,10.181,0,0,1,.489-3.214,7.21,7.21,0,0,1,1.446-2.559,6.552,6.552,0,0,1,2.358-1.679,8.12,8.12,0,0,1,3.226-.6h0a8.12,8.12,0,0,1,3.226.6,6.45,6.45,0,0,1,2.347,1.679,7.328,7.328,0,0,1,1.435,2.559,10.181,10.181,0,0,1,.489,3.214h0a10.187,10.187,0,0,1-.489,3.215,7.332,7.332,0,0,1-1.435,2.558,6.465,6.465,0,0,1-2.347,1.68,8.138,8.138,0,0,1-3.226.6h0a8.138,8.138,0,0,1-3.226-.6,6.566,6.566,0,0,1-2.358-1.68,7.214,7.214,0,0,1-1.446-2.558A10.187,10.187,0,0,1,218.455,229.8Zm3.782,0h0a14.652,14.652,0,0,0,.222,2.636,6.988,6.988,0,0,0,.7,2.092,3.841,3.841,0,0,0,1.223,1.379,3.135,3.135,0,0,0,1.791.5h0a2.627,2.627,0,0,0,1.624-.5,3.67,3.67,0,0,0,1.09-1.379,7.473,7.473,0,0,0,.612-2.092,17.15,17.15,0,0,0,.189-2.636h0a15.364,15.364,0,0,0-.211-2.636,7.2,7.2,0,0,0-.668-2.091,3.624,3.624,0,0,0-1.2-1.379,3.175,3.175,0,0,0-1.813-.5h0a2.838,2.838,0,0,0-1.713.5,3.476,3.476,0,0,0-1.1,1.379,7.27,7.27,0,0,0-.578,2.091A19.263,19.263,0,0,0,222.237,229.8Zm15.239-6.941v-.845h7.3v.845a5.658,5.658,0,0,1-1.034.412,6.929,6.929,0,0,1-1.1.233h0v12.637h4.293l1.491-3.983h.912q.088.512.167,1.2t.122,1.446q.045.756.067,1.49t0,1.291H237.476v-.846a7.006,7.006,0,0,1,.967-.423,5.46,5.46,0,0,1,.857-.222h0V223.506a4.789,4.789,0,0,1-1.824-.645Zm25.272,0v-.845h5.45v.845a7.549,7.549,0,0,1-.745.39,3.172,3.172,0,0,1-.835.255h0L262.3,231.07V236.1a2.927,2.927,0,0,1,.878.234,7.508,7.508,0,0,1,.812.411h0v.846h-6.851v-.846a7.657,7.657,0,0,1,.845-.378,5.23,5.23,0,0,1,.979-.267h0v-5.005l-4.494-7.587a4.978,4.978,0,0,1-.968-.267,7.753,7.753,0,0,1-.834-.378h0v-.845h7.3v.845c-.208.119-.445.237-.712.356a4.6,4.6,0,0,1-.934.289h0l3.181,5.963,3.025-5.963a6.77,6.77,0,0,1-.979-.289,7.036,7.036,0,0,1-.8-.356ZM185.4,247.606,186.715,242a4.426,4.426,0,0,1-1.381-.477h0V240.9h4.143v.625a2.951,2.951,0,0,1-.592.3,4.711,4.711,0,0,1-.608.181h0l-2.91,10.407-1.71.2-2.548-7.958-2.483,7.76-1.726.2L173.694,242a3.268,3.268,0,0,1-.642-.189,3.826,3.826,0,0,1-.559-.288h0V240.9h5.327v.625a4.592,4.592,0,0,1-.633.272,6.287,6.287,0,0,1-.731.2h0l1.529,5.8.345,2.137h.033l.575-2.219,2.187-6.824h.97l2.335,6.741.559,2.138h.033Zm6.691-.954h0a7.528,7.528,0,0,1,.362-2.376,5.331,5.331,0,0,1,1.069-1.891,4.842,4.842,0,0,1,1.743-1.241,6,6,0,0,1,2.384-.444h0a6,6,0,0,1,2.383.444,4.769,4.769,0,0,1,1.735,1.241,5.424,5.424,0,0,1,1.061,1.891,7.528,7.528,0,0,1,.361,2.376h0a7.528,7.528,0,0,1-.361,2.376,5.411,5.411,0,0,1-1.061,1.89,4.76,4.76,0,0,1-1.735,1.242,6,6,0,0,1-2.383.444h0a6,6,0,0,1-2.384-.444,4.832,4.832,0,0,1-1.743-1.242,5.318,5.318,0,0,1-1.069-1.89A7.528,7.528,0,0,1,192.091,246.652Zm2.795,0h0a10.769,10.769,0,0,0,.165,1.948,5.155,5.155,0,0,0,.518,1.546,2.823,2.823,0,0,0,.9,1.019,2.314,2.314,0,0,0,1.324.37h0a1.941,1.941,0,0,0,1.2-.37,2.709,2.709,0,0,0,.8-1.019,5.54,5.54,0,0,0,.453-1.546,12.693,12.693,0,0,0,.139-1.948h0a11.367,11.367,0,0,0-.156-1.948,5.351,5.351,0,0,0-.493-1.546,2.69,2.69,0,0,0-.888-1.019,2.345,2.345,0,0,0-1.34-.37h0a2.1,2.1,0,0,0-1.266.37,2.573,2.573,0,0,0-.814,1.019,5.352,5.352,0,0,0-.427,1.546A14.345,14.345,0,0,0,194.886,246.652Zm18.99-5.13V240.9h4.077v.625a3.942,3.942,0,0,1-.69.436,4.5,4.5,0,0,1-.707.288h0V252.6h-1.4l-5.8-8.385-.658-1.266h-.049l.148,1.315v6.856a4.08,4.08,0,0,1,.731.271,4.49,4.49,0,0,1,.683.387h0v.624h-4.061v-.624a5.461,5.461,0,0,1,.649-.37,4.9,4.9,0,0,1,.732-.288h0v-8.977c-.219-.088-.439-.186-.658-.3a5.166,5.166,0,0,1-.592-.345h0V240.9h3.552l4.718,6.84.756,1.414h.066l-.082-1.414v-5.491a5.508,5.508,0,0,1-.764-.321,4.186,4.186,0,0,1-.65-.4Zm8.517,10.884h-1.809v-.624a3.605,3.605,0,0,1,.625-.288,4.405,4.405,0,0,1,.723-.189h0V242a6.287,6.287,0,0,1-.731-.2,3.857,3.857,0,0,1-.617-.272h0V240.9h1.907q.28,0,.691-.016t.855-.041l.863-.049c.279-.017.518-.025.715-.025h0a8.017,8.017,0,0,1,2.557.378,5.187,5.187,0,0,1,1.907,1.1,4.764,4.764,0,0,1,1.2,1.792,6.707,6.707,0,0,1,.419,2.466h0a7.425,7.425,0,0,1-.394,2.483,5.017,5.017,0,0,1-1.184,1.907,5.339,5.339,0,0,1-2,1.225,8.369,8.369,0,0,1-2.836.435h0c-.142,0-.334-.008-.575-.024s-.5-.033-.773-.05l-.822-.049q-.411-.026-.723-.025Zm3.009-10.571h0c-.2,0-.395,0-.593.016s-.367.027-.509.049h0v9.52a1.411,1.411,0,0,0,.23.025l.337.016.337.016c.11.006.192.009.247.009h0a3.125,3.125,0,0,0,1.619-.395,3.23,3.23,0,0,0,1.094-1.069,4.856,4.856,0,0,0,.624-1.578,8.981,8.981,0,0,0,.2-1.924h0a7.288,7.288,0,0,0-.205-1.742,4.842,4.842,0,0,0-.633-1.5,3.111,3.111,0,0,0-2.745-1.446Zm9.256-.938h8.648q-.033.741-.115,1.529t-.214,1.48H242.3l-.756-1.94h-3.075v4.028h2.006l.724-1.266h.526q.081.805.082,1.792t-.082,1.842H241.2l-.724-1.3h-2.006v4.275h3.206l.872-2.088h.674c.044.208.087.443.131.706s.08.535.107.814.05.562.066.847.025.548.025.789h-8.9v-.624a5.494,5.494,0,0,1,.625-.28,3.889,3.889,0,0,1,.723-.2h0V242a5.947,5.947,0,0,1-.7-.189,3.368,3.368,0,0,1-.649-.288h0Zm15.718,6.528v3.88a3.49,3.49,0,0,1,.674.214q.3.13.575.263h0v.624h-5.064v-.624a4.134,4.134,0,0,1,.691-.305,5.891,5.891,0,0,1,.657-.172h0V242a4.953,4.953,0,0,1-1.348-.477h0V240.9H248.3c.219,0,.469,0,.748-.016s.573-.025.88-.041l.937-.049q.477-.025.921-.025h0a6.405,6.405,0,0,1,1.668.205,3.841,3.841,0,0,1,1.316.617,2.834,2.834,0,0,1,.855,1.027,3.23,3.23,0,0,1,.3,1.439h0a3.112,3.112,0,0,1-.576,1.94,3.456,3.456,0,0,1-1.578,1.135h0q.659,1.035,1.4,2.112t1.563,2.08h0l.789.526v.559h-2.746l-.707-.542a10.335,10.335,0,0,1-1.34-2.1q-.584-1.191-1.028-2.342h-1.331Zm.822-5.59h0a2.8,2.8,0,0,0-.822.1h0v4.587h.97a1.934,1.934,0,0,0,1.43-.6,2.438,2.438,0,0,0,.592-1.784h0a2.979,2.979,0,0,0-.164-1.044,1.881,1.881,0,0,0-.461-.715,1.845,1.845,0,0,0-.69-.411A2.679,2.679,0,0,0,251.2,241.835Zm10.374,6.79.674,2.417a1.847,1.847,0,0,0,.51.337,2.051,2.051,0,0,0,.871.156h0a2.368,2.368,0,0,0,1.5-.469,1.564,1.564,0,0,0,.6-1.307h0a1.433,1.433,0,0,0-.386-1.019,4.313,4.313,0,0,0-.979-.756q-.591-.347-1.266-.683a7.553,7.553,0,0,1-1.266-.8,4.061,4.061,0,0,1-.978-1.093,2.963,2.963,0,0,1-.386-1.571h0a3.08,3.08,0,0,1,.3-1.4,2.7,2.7,0,0,1,.814-.978,3.553,3.553,0,0,1,1.224-.576,5.908,5.908,0,0,1,1.529-.189h0a11.7,11.7,0,0,1,1.866.14,6.572,6.572,0,0,1,1.554.436h0q-.017.328-.057.756c-.028.285-.063.567-.107.847s-.091.542-.14.789-.1.452-.14.616h-.674l-.756-2.252a2.562,2.562,0,0,0-.584-.181,3.808,3.808,0,0,0-.8-.082h0a1.871,1.871,0,0,0-1.168.362,1.238,1.238,0,0,0-.476,1.052h0a1.522,1.522,0,0,0,.394,1.06,4.449,4.449,0,0,0,.987.8q.591.362,1.29.715a7.946,7.946,0,0,1,1.291.814,4.276,4.276,0,0,1,.987,1.077,2.765,2.765,0,0,1,.394,1.52h0a3.079,3.079,0,0,1-1.11,2.541,5.1,5.1,0,0,1-3.263.9h0a8.647,8.647,0,0,1-1.061-.066,8.977,8.977,0,0,1-1.011-.181,8.5,8.5,0,0,1-.847-.247,1.854,1.854,0,0,1-.55-.279h0a7.707,7.707,0,0,1,.082-.814c.044-.29.09-.581.14-.871s.1-.568.156-.831.109-.493.164-.69h.674Z"/><path d="M191.077,258.1a.064.064,0,0,1,.057.023.06.06,0,0,1,.006.056h0l-1.174,4.056a.1.1,0,0,1-.108.074h-.278c-.068,0-.108-.023-.119-.068h0l-.959-3.4c0-.019-.008-.028-.014-.028s-.011.009-.014.028h0l-.976,3.4a.1.1,0,0,1-.108.074h-.283c-.068,0-.108-.023-.119-.068h0l-1.152-4.056,0-.011,0-.012h0c0-.041.023-.062.068-.062h.272a.111.111,0,0,1,.057.011.087.087,0,0,1,.029.046h0l.975,3.494c.012.038.023.057.034.057h0c.011,0,.023-.021.034-.063h0l.993-3.494a.1.1,0,0,1,.091-.051h.249a.111.111,0,0,1,.057.011.086.086,0,0,1,.028.046h0l.982,3.5c.011.034.022.051.034.051h0c.011,0,.022-.017.034-.051h0l.992-3.506c.008-.034.036-.051.086-.051h.226Zm1,4.209a.049.049,0,0,1-.042-.02.073.073,0,0,1,0-.06h0l1.481-4.055a.129.129,0,0,1,.039-.057.1.1,0,0,1,.063-.017h.34a.108.108,0,0,1,.119.074h0l1.464,4.055a.084.084,0,0,1,0,.029h0a.045.045,0,0,1-.051.051h-.3a.079.079,0,0,1-.085-.051h0l-.419-1.169a.064.064,0,0,0-.063-.045H192.91a.063.063,0,0,0-.063.045h0l-.431,1.175c-.007.03-.032.045-.074.045h-.261Zm.942-1.611h1.486c.038,0,.051-.021.04-.063h0l-.732-2.013q-.017-.051-.039-.051h0c-.015,0-.031.019-.046.057h0l-.743,2.013a.08.08,0,0,0-.011.034h0c0,.015.015.023.045.023Zm6.631,1.514a.065.065,0,0,1,.006.029h0a.072.072,0,0,1-.017.048.06.06,0,0,1-.046.02h-.311a.089.089,0,0,1-.08-.063h0l-.766-1.832a.079.079,0,0,0-.039-.048.21.21,0,0,0-.086-.014h-1.072c-.045,0-.067.021-.067.062h0v1.815a.085.085,0,0,1-.018.063.078.078,0,0,1-.056.017h-.278c-.05,0-.074-.023-.074-.068h0V258.17a.078.078,0,0,1,.014-.054.071.071,0,0,1,.048-.014h1.532a1.615,1.615,0,0,1,1.007.275.948.948,0,0,1,.354.8h0a1.038,1.038,0,0,1-.243.726,1.276,1.276,0,0,1-.6.369h0c-.023,0-.03.021-.023.051h0Zm-1.486-2.189a1.419,1.419,0,0,0,.825-.193.7.7,0,0,0,.27-.612h0q0-.789-.936-.789h-1.078c-.049,0-.073.017-.073.051h0v1.48c0,.042.016.063.05.063h.942Zm2.9,2.286c-.046,0-.068-.025-.068-.074h0V258.17a.073.073,0,0,1,.014-.054.067.067,0,0,1,.048-.014h.38a.131.131,0,0,1,.06.011.083.083,0,0,1,.031.046h0l1.361,3.471c.019.038.034.057.046.057h0q.016,0,.045-.057h0l1.373-3.466a.073.073,0,0,1,.074-.062h.408c.038,0,.057.023.057.068h0v4.067a.066.066,0,0,1-.074.074h-.284a.055.055,0,0,1-.068-.068h0V258.9c0-.015,0-.022-.011-.02s-.013.009-.017.02h0l-1.316,3.347a.092.092,0,0,1-.1.068H202.8a.151.151,0,0,1-.071-.014.1.1,0,0,1-.043-.049h0L201.4,258.93c0-.019-.009-.028-.017-.028s-.011.009-.011.028h0v3.318a.072.072,0,0,1-.014.049.08.08,0,0,1-.054.014h-.238Zm5.411-4.209h.307a.057.057,0,0,1,.045.014.087.087,0,0,1,.011.054h0v4.056a.1.1,0,0,1-.017.068.1.1,0,0,1-.068.017H206.5a.1.1,0,0,1-.062-.014.071.071,0,0,1-.017-.054h0V258.17a.078.078,0,0,1,.014-.054.071.071,0,0,1,.048-.014Zm4.675,0h.26a.06.06,0,0,1,.046.014.083.083,0,0,1,.011.048h0v4.084a.055.055,0,0,1-.062.063h-.227a.1.1,0,0,1-.085-.04h0l-2.286-3.346c-.019-.027-.035-.038-.049-.035s-.019.017-.019.04h0v3.318c0,.042-.023.063-.068.063h-.244a.078.078,0,0,1-.054-.014.076.076,0,0,1-.014-.054h0V258.17a.073.073,0,0,1,.014-.054.067.067,0,0,1,.048-.014h.238a.176.176,0,0,1,.06.008.114.114,0,0,1,.042.043h0l2.247,3.3a.073.073,0,0,0,.051.034h0a.028.028,0,0,0,.022-.014.053.053,0,0,0,.012-.037h0v-3.273c0-.041.019-.062.057-.062Zm3.369,4.266a1.627,1.627,0,0,1-.922-.258,1.646,1.646,0,0,1-.6-.741,2.889,2.889,0,0,1-.207-1.146h0a2.93,2.93,0,0,1,.213-1.171,1.582,1.582,0,0,1,1.529-1.007h0a1.614,1.614,0,0,1,.7.156,1.567,1.567,0,0,1,.547.414,1.071,1.071,0,0,1,.255.548h0v.034a.035.035,0,0,1-.033.039h0l-.324.051h-.011c-.019,0-.032-.015-.04-.045h0a1.008,1.008,0,0,0-.371-.61,1.117,1.117,0,0,0-.724-.247h0a1.1,1.1,0,0,0-.955.469,2.282,2.282,0,0,0-.332,1.335h0a2.337,2.337,0,0,0,.332,1.37,1.113,1.113,0,0,0,.966.463h0a1.165,1.165,0,0,0,.642-.171,1.126,1.126,0,0,0,.4-.428,1.231,1.231,0,0,0,.148-.524h0v-.392q0-.045-.057-.045h-.987c-.034,0-.051-.016-.051-.046h0v-.2c0-.03.013-.046.04-.046h1.384c.041,0,.062.019.062.057h0v2.014c0,.045-.021.068-.062.068h-.119a.152.152,0,0,1-.063-.011.065.065,0,0,1-.028-.052h0l-.034-.555c0-.019-.011-.029-.02-.029s-.02.01-.031.029h0a1.374,1.374,0,0,1-.488.488,1.459,1.459,0,0,1-.76.187Zm4.209-3.977v-.232a.05.05,0,0,1,.057-.057h2.995a.05.05,0,0,1,.057.057h0v.232q0,.051-.057.051h-1.175a.08.08,0,0,0-.045.009c-.007,0-.011.02-.011.042h0v3.75a.076.076,0,0,1-.015.054.067.067,0,0,1-.048.014h-.306a.067.067,0,0,1-.048-.014.076.076,0,0,1-.014-.054h0v-3.75c0-.022,0-.037-.012-.042a.075.075,0,0,0-.045-.009h-1.276q-.057,0-.057-.051Zm6.779,1.906h-2.02a.043.043,0,0,0-.034.014.053.053,0,0,0-.011.031h0v1.9c0,.045-.025.068-.074.068h-.284a.06.06,0,0,1-.068-.068h0V258.17a.078.078,0,0,1,.014-.054.072.072,0,0,1,.049-.014h.306a.06.06,0,0,1,.046.014.094.094,0,0,1,.011.054h0v1.719a.069.069,0,0,0,.014.051.083.083,0,0,0,.048.011h2a.05.05,0,0,0,.057-.057h0v-1.73c0-.041.017-.062.051-.062h.312a.071.071,0,0,1,.048.014.078.078,0,0,1,.014.054h0v4.073a.06.06,0,0,1-.068.068h-.284c-.049,0-.073-.023-.073-.068h0v-1.895a.045.045,0,0,0-.051-.051Zm2-2.127a.073.073,0,0,1,.015-.054.067.067,0,0,1,.048-.014h2.467a.045.045,0,0,1,.051.051h0l0,.232a.065.065,0,0,1-.012.046.066.066,0,0,1-.045.011H228a.085.085,0,0,0-.054.012c-.01.007-.014.024-.014.051h0v1.457a.056.056,0,0,0,.014.046.08.08,0,0,0,.048.011h1.537a.053.053,0,0,1,.04.012.051.051,0,0,1,.011.039h0v.239c0,.018,0,.031-.011.036a.065.065,0,0,1-.04.009h-1.542a.071.071,0,0,0-.043.011.056.056,0,0,0-.014.046h0v1.5c0,.023,0,.038.011.045a.065.065,0,0,0,.046.012H230.1a.094.094,0,0,1,.048.008c.01.006.015.02.015.043h0v.238q0,.051-.057.051h-2.536a.056.056,0,0,1-.068-.068h0Zm10.381-.068a.066.066,0,0,1,.057.023.057.057,0,0,1,.005.056h0l-1.174,4.056a.1.1,0,0,1-.108.074h-.277c-.069,0-.108-.023-.12-.068h0l-.958-3.4c0-.019-.009-.028-.015-.028s-.01.009-.014.028h0l-.975,3.4a.1.1,0,0,1-.108.074h-.284c-.068,0-.108-.023-.119-.068h0l-1.151-4.056,0-.011,0-.012h0c0-.041.022-.062.068-.062h.272a.117.117,0,0,1,.057.011.086.086,0,0,1,.028.046h0l.976,3.494c.011.038.022.057.034.057h0c.011,0,.022-.021.034-.063h0l.993-3.494a.1.1,0,0,1,.09-.051h.25a.117.117,0,0,1,.057.011.093.093,0,0,1,.028.046h0l.981,3.5c.012.034.023.051.034.051h0c.012,0,.023-.017.034-.051h0l.993-3.506c.008-.034.036-.051.085-.051h.227Zm2.842,4.266a1.6,1.6,0,0,1-1.3-.556,2.4,2.4,0,0,1-.465-1.583h0a2.982,2.982,0,0,1,.212-1.183,1.63,1.63,0,0,1,.613-.746,1.722,1.722,0,0,1,.945-.255h0a1.693,1.693,0,0,1,.938.253,1.592,1.592,0,0,1,.6.74,2.975,2.975,0,0,1,.21,1.18h0a2.424,2.424,0,0,1-.465,1.591,1.592,1.592,0,0,1-1.293.559Zm.011-.346a1.131,1.131,0,0,0,.976-.443,2.32,2.32,0,0,0,.323-1.361h0q0-1.833-1.3-1.833h0q-1.322,0-1.322,1.833h0q0,1.8,1.327,1.8Zm5.985.192a.065.065,0,0,1,0,.029h0a.067.067,0,0,1-.017.048.056.056,0,0,1-.045.02h-.312c-.034,0-.06-.021-.079-.063h0l-.766-1.832a.084.084,0,0,0-.04-.048.2.2,0,0,0-.085-.014h-1.072c-.045,0-.068.021-.068.062h0v1.815a.09.09,0,0,1-.017.063.081.081,0,0,1-.057.017h-.278c-.049,0-.073-.023-.073-.068h0V258.17a.073.073,0,0,1,.014-.054.067.067,0,0,1,.048-.014h1.532a1.612,1.612,0,0,1,1.006.275.946.946,0,0,1,.355.8h0a1.038,1.038,0,0,1-.244.726,1.271,1.271,0,0,1-.6.369h0c-.023,0-.03.021-.022.051h0Zm-1.487-2.189a1.424,1.424,0,0,0,.826-.193.7.7,0,0,0,.269-.612h0q0-.789-.936-.789H244.32c-.05,0-.074.017-.074.051h0v1.48q0,.063.051.063h.941Zm2.831-1.855a.078.078,0,0,1,.014-.054.071.071,0,0,1,.048-.014h.307a.057.057,0,0,1,.045.014.085.085,0,0,1,.012.054h0v3.744c0,.023,0,.038.011.045a.062.062,0,0,0,.045.012h2a.079.079,0,0,1,.045.008c.008.006.011.02.011.043h0v.238c0,.034-.018.051-.056.051h-2.417a.06.06,0,0,1-.068-.068h0Zm3.789-.068.795.006a2.388,2.388,0,0,1,1.679.519,2.063,2.063,0,0,1,.527,1.551h0a2.1,2.1,0,0,1-.561,1.608,2.437,2.437,0,0,1-1.714.525h-.726c-.045,0-.068-.025-.068-.074h0v-4.073c0-.041.023-.062.068-.062Zm.4.34c-.03,0-.045.027-.045.08h0v3.4c0,.038.022.057.068.057h.244a2.782,2.782,0,0,0,1.089-.176,1.162,1.162,0,0,0,.6-.564,2.355,2.355,0,0,0,.193-1.041h0a2.323,2.323,0,0,0-.19-1.038,1.108,1.108,0,0,0-.576-.536,2.929,2.929,0,0,0-1.032-.179h-.352Z"/></mask><mask id="b" x="114.684" y="115.068" width="211.324" height="211.324" maskUnits="userSpaceOnUse"><rect x="114.684" y="115.068" width="211.324" height="211.324"/><g mask="url(#a)"><path d="M141.3,195.048c6.469-19.911,58.106-57.427,79.042-57.427s72.572,37.516,79.041,57.427-13.254,80.613-30.191,92.919-80.763,12.306-97.7,0S134.835,214.959,141.3,195.048Z" fill="#fff"/></g></mask><radialGradient id="c" cx="-1438.698" cy="734.682" r="0.332" gradientTransform="matrix(768, 0, 0, -768, 1105140.625, 564307)" gradientUnits="userSpaceOnUse"><stop offset="0" stop-color="#ff9ba7"/><stop offset="0.167" stop-color="#ff92a8"/><stop offset="0.333" stop-color="#ff88a9"/><stop offset="0.5" stop-color="#ff7eab"/><stop offset="0.667" stop-color="#f774ae"/><stop offset="0.833" stop-color="#ef6cb1"/><stop offset="1" stop-color="#e566b6"/></radialGradient></defs><circle cx="220.053" cy="220.203" r="198.292" fill="#fff"/><rect x="45.902" y="351.123" width="348.887" height="4" fill="#4e42d4"/><rect x="45.902" y="107.837" width="348.887" height="225.787" rx="7" fill="#34104b"/><g mask="url(#b)"><rect x="114.684" y="115.068" width="211.324" height="211.324" fill="url(#c)"/></g><circle cx="300.998" cy="353.123" r="12" fill="#ff3859"/><polyline points="311.487 305.885 311.487 307.885 309.487 307.885" fill="none" stroke="#fff" stroke-miterlimit="10" stroke-width="2"/><line x1="305.545" y1="307.885" x2="134.093" y2="307.885" fill="none" stroke="#fff" stroke-miterlimit="10" stroke-width="2" stroke-dasharray="3.941 3.941"/><polyline points="132.122 307.885 130.122 307.885 130.122 305.885" fill="none" stroke="#fff" stroke-miterlimit="10" stroke-width="2"/><line x1="130.122" y1="301.943" x2="130.122" y2="130.491" fill="none" stroke="#fff" stroke-miterlimit="10" stroke-width="2" stroke-dasharray="3.941 3.941"/><polyline points="130.122 128.52 130.122 126.52 132.122 126.52" fill="none" stroke="#fff" stroke-miterlimit="10" stroke-width="2"/><line x1="136.064" y1="126.52" x2="307.516" y2="126.52" fill="none" stroke="#fff" stroke-miterlimit="10" stroke-width="2" stroke-dasharray="3.941 3.941"/><polyline points="309.487 126.52 311.487 126.52 311.487 128.52" fill="none" stroke="#fff" stroke-miterlimit="10" stroke-width="2"/><line x1="311.487" y1="132.462" x2="311.487" y2="303.914" fill="none" stroke="#fff" stroke-miterlimit="10" stroke-width="2" stroke-dasharray="3.941 3.941"/><path d="M304.329,352.753c.96-.356,2.854-.138,3.354.946.426.924.792,2.482.812,2.15a12.772,12.772,0,0,1,.274-3.168,2.215,2.215,0,0,1,1.372-1.382,3.864,3.864,0,0,1,1.832-.11,2.518,2.518,0,0,1,1.53,1,10.958,10.958,0,0,1,.77,3.662c.128-.544.14-2.458.566-3.168a2.486,2.486,0,0,1,1.374-.958,5.568,5.568,0,0,1,1.928-.016,2.8,2.8,0,0,1,1.354.974,10.959,10.959,0,0,1,.758,3.316c.032.282.148-.786.586-1.472a2.069,2.069,0,0,1,3.8,1.278c.052,1.308.04,1.248.04,2.128,0,1.032-.024,1.656-.08,2.4a23.251,23.251,0,0,1-.482,3.484,11.747,11.747,0,0,1-1.306,2.768s-2.148,2.5-2.382,3.624a8.233,8.233,0,0,0-.2,1.93,7,7,0,0,0,.242,1.846,11.59,11.59,0,0,1-2.468.068c-.782-.124-1.75-1.68-2-2.156a.758.758,0,0,0-1.364-.046c-.448.766-1.418,2.14-2.1,2.226-1.338.168-4.11.06-6.28.04,0,0,.37-2.022-.454-2.716-.61-.52-1.66-1.568-2.288-2.12l-1.664-1.842a8.893,8.893,0,0,1-2.486-3.97c-.426-1.872-.384-2.79.074-3.54a3,3,0,0,1,1.708-1.25,3.606,3.606,0,0,1,1.75.124,2.305,2.305,0,0,1,.976.782c.46.614.624.912.426.242-.152-.524-.644-1.19-.868-1.94a9.168,9.168,0,0,1-.76-3.052,2.288,2.288,0,0,1,1.664-2.084" fill="#212159" stroke="#212159" stroke-linejoin="round" stroke-width="1.5" fill-rule="evenodd"/><path d="M306.329,350.753c.96-.356,2.854-.138,3.354.946.426.924.792,2.482.812,2.15a12.772,12.772,0,0,1,.274-3.168,2.215,2.215,0,0,1,1.372-1.382,3.864,3.864,0,0,1,1.832-.11,2.518,2.518,0,0,1,1.53,1,10.958,10.958,0,0,1,.77,3.662c.128-.544.14-2.458.566-3.168a2.486,2.486,0,0,1,1.374-.958,5.568,5.568,0,0,1,1.928-.016,2.8,2.8,0,0,1,1.354.974,10.959,10.959,0,0,1,.758,3.316c.032.282.148-.786.586-1.472a2.069,2.069,0,0,1,3.8,1.278c.052,1.308.04,1.248.04,2.128,0,1.032-.024,1.656-.08,2.4a23.251,23.251,0,0,1-.482,3.484,11.747,11.747,0,0,1-1.306,2.768s-2.148,2.5-2.382,3.624a8.233,8.233,0,0,0-.2,1.93,7,7,0,0,0,.242,1.846,11.59,11.59,0,0,1-2.468.068c-.782-.124-1.75-1.68-2-2.156a.758.758,0,0,0-1.364-.046c-.448.766-1.418,2.14-2.1,2.226-1.338.168-4.11.06-6.28.04,0,0,.37-2.022-.454-2.716-.61-.52-1.66-1.568-2.288-2.12l-1.664-1.842a8.893,8.893,0,0,1-2.486-3.97c-.426-1.872-.384-2.79.074-3.54a3,3,0,0,1,1.708-1.25,3.606,3.606,0,0,1,1.75.124,2.305,2.305,0,0,1,.976.782c.46.614.624.912.426.242-.152-.524-.644-1.19-.868-1.94a9.168,9.168,0,0,1-.76-3.052,2.288,2.288,0,0,1,1.664-2.084" fill="#fff" fill-rule="evenodd"/><path d="M306.329,350.753c.96-.356,2.854-.138,3.354.946.426.924.792,2.482.812,2.15a12.772,12.772,0,0,1,.274-3.168,2.215,2.215,0,0,1,1.372-1.382,3.864,3.864,0,0,1,1.832-.11,2.518,2.518,0,0,1,1.53,1,10.958,10.958,0,0,1,.77,3.662c.128-.544.14-2.458.566-3.168a2.486,2.486,0,0,1,1.374-.958,5.568,5.568,0,0,1,1.928-.016,2.8,2.8,0,0,1,1.354.974,10.959,10.959,0,0,1,.758,3.316c.032.282.148-.786.586-1.472a2.069,2.069,0,0,1,3.8,1.278c.052,1.308.04,1.248.04,2.128,0,1.032-.024,1.656-.08,2.4a23.251,23.251,0,0,1-.482,3.484,11.747,11.747,0,0,1-1.306,2.768s-2.148,2.5-2.382,3.624a8.233,8.233,0,0,0-.2,1.93,7,7,0,0,0,.242,1.846,11.59,11.59,0,0,1-2.468.068c-.782-.124-1.75-1.68-2-2.156a.758.758,0,0,0-1.364-.046c-.448.766-1.418,2.14-2.1,2.226-1.338.168-4.11.06-6.28.04,0,0,.37-2.022-.454-2.716-.61-.52-1.66-1.568-2.288-2.12l-1.664-1.842a8.893,8.893,0,0,1-2.486-3.97c-.426-1.872-.384-2.79.074-3.54a3,3,0,0,1,1.708-1.25,3.606,3.606,0,0,1,1.75.124,2.305,2.305,0,0,1,.976.782c.46.614.624.912.426.242-.152-.524-.644-1.19-.868-1.94a9.168,9.168,0,0,1-.76-3.052,2.288,2.288,0,0,1,1.664-2.084Z" fill="none" stroke="#212159" stroke-linejoin="round" stroke-width="1.5"/><path d="M320.315,366.149v-6.918" fill="none" stroke="#212159" stroke-linecap="round" stroke-width="1.5"/><path d="M316.284,366.173l-.032-6.946" fill="none" stroke="#212159" stroke-linecap="round" stroke-width="1.5"/><path d="M312.292,359.29l.042,6.852" fill="none" stroke="#212159" stroke-linecap="round" stroke-width="1.5"/></svg>