<svg xmlns="http://www.w3.org/2000/svg" viewBox="0 0 440 440"><circle cx="219.93" cy="222.203" r="198.292" fill="#fff"/><rect x="77.763" y="202.403" width="280" height="4" fill="#ff3859"/><path d="M122.4,150.345a4.194,4.194,0,0,1,2.376-.72,4.108,4.108,0,0,1,2.76,1.008,3.417,3.417,0,0,1,1.177,2.736,6.323,6.323,0,0,1-.385,1.92L118.681,181.4a3.875,3.875,0,0,1-1.752,2.088,5.476,5.476,0,0,1-2.809.744,5.336,5.336,0,0,1-2.783-.744,3.889,3.889,0,0,1-1.729-2.088l-6.24-17.808L96.841,181.4a4.133,4.133,0,0,1-1.777,2.088,5.254,5.254,0,0,1-2.736.744,5.336,5.336,0,0,1-2.783-.744,3.889,3.889,0,0,1-1.729-2.088l-9.7-26.112a5.524,5.524,0,0,1-.336-1.824,3.421,3.421,0,0,1,1.273-2.808,4.544,4.544,0,0,1,2.952-1.032,4.617,4.617,0,0,1,2.471.7,3.822,3.822,0,0,1,1.609,2.088l6.575,18.912,6.96-18.912a4.024,4.024,0,0,1,1.56-2.064,4.194,4.194,0,0,1,2.376-.72,4,4,0,0,1,3.888,2.832l6.528,19.3,6.865-19.344A4.018,4.018,0,0,1,122.4,150.345Z" fill="#ff3859"/><path d="M134.784,182.673a10.853,10.853,0,0,1-4.56-4.3,12.823,12.823,0,0,1-1.608-6.528,12.691,12.691,0,0,1,1.608-6.5,10.773,10.773,0,0,1,4.537-4.248,16.573,16.573,0,0,1,13.727,0,10.782,10.782,0,0,1,4.536,4.248,12.692,12.692,0,0,1,1.609,6.5,12.823,12.823,0,0,1-1.609,6.528,10.891,10.891,0,0,1-4.536,4.3,16.282,16.282,0,0,1-13.7,0Zm11.4-10.824q0-5.952-4.56-5.952t-4.56,5.952q0,5.952,4.56,5.952T146.184,171.849Z" fill="#ff3859"/><path d="M163.584,182.673a10.855,10.855,0,0,1-4.561-4.3,12.823,12.823,0,0,1-1.607-6.528,12.691,12.691,0,0,1,1.607-6.5,10.782,10.782,0,0,1,4.536-4.248,16.578,16.578,0,0,1,13.729,0,10.779,10.779,0,0,1,4.535,4.248,12.692,12.692,0,0,1,1.609,6.5,12.823,12.823,0,0,1-1.609,6.528,10.889,10.889,0,0,1-4.535,4.3,16.282,16.282,0,0,1-13.7,0Zm11.4-10.824q0-5.952-4.559-5.952t-4.561,5.952q0,5.952,4.561,5.952T174.983,171.849Z" fill="#ff3859"/><path d="M188.544,183.105a3.559,3.559,0,0,1-1.225-2.952V153.705a3.63,3.63,0,0,1,1.225-2.976,5.112,5.112,0,0,1,6.1,0,3.634,3.634,0,0,1,1.223,2.976v26.448a3.564,3.564,0,0,1-1.223,2.952,5.213,5.213,0,0,1-6.1,0Z" fill="#ff3859"/><path d="M218.039,160.329a3.694,3.694,0,0,1,2.016-.576,4.267,4.267,0,0,1,2.832,1.056,3.225,3.225,0,0,1,1.248,2.544,3.5,3.5,0,0,1-.384,1.584l-12.72,25.488a4.1,4.1,0,0,1-1.513,1.776,3.817,3.817,0,0,1-2.04.576,4.229,4.229,0,0,1-2.807-1.032,3.179,3.179,0,0,1-1.224-2.52,3.742,3.742,0,0,1,.432-1.68l3.12-6.288-8.16-16.32a3.84,3.84,0,0,1-.384-1.536,3.25,3.25,0,0,1,1.344-2.616,4.7,4.7,0,0,1,3.024-1.08,4.028,4.028,0,0,1,2.136.6,3.858,3.858,0,0,1,1.512,1.8l5.087,11.04L216.6,162.1A3.851,3.851,0,0,1,218.039,160.329Z" fill="#ff3859"/><path d="M284.062,150.345a4.194,4.194,0,0,1,2.376-.72,4.108,4.108,0,0,1,2.76,1.008,3.42,3.42,0,0,1,1.176,2.736,6.318,6.318,0,0,1-.384,1.92L280.342,181.4a3.875,3.875,0,0,1-1.752,2.088,5.47,5.47,0,0,1-2.808.744,5.342,5.342,0,0,1-2.784-.744,3.892,3.892,0,0,1-1.728-2.088l-6.24-17.808L258.5,181.4a4.131,4.131,0,0,1-1.776,2.088,5.259,5.259,0,0,1-2.736.744,5.342,5.342,0,0,1-2.784-.744,3.892,3.892,0,0,1-1.728-2.088l-9.7-26.112a5.524,5.524,0,0,1-.336-1.824,3.423,3.423,0,0,1,1.272-2.808,4.546,4.546,0,0,1,2.952-1.032,4.62,4.62,0,0,1,2.472.7,3.821,3.821,0,0,1,1.608,2.088l6.576,18.912,6.96-18.912a4.014,4.014,0,0,1,1.56-2.064,4.194,4.194,0,0,1,2.376-.72,4,4,0,0,1,3.888,2.832l6.528,19.3,6.864-19.344A4.014,4.014,0,0,1,284.062,150.345Z" fill="#ff3859"/><path d="M296.446,182.673a10.847,10.847,0,0,1-4.56-4.3,12.813,12.813,0,0,1-1.608-6.528,12.681,12.681,0,0,1,1.608-6.5,10.776,10.776,0,0,1,4.536-4.248,16.575,16.575,0,0,1,13.728,0,10.779,10.779,0,0,1,4.535,4.248,12.682,12.682,0,0,1,1.609,6.5,12.813,12.813,0,0,1-1.609,6.528,10.889,10.889,0,0,1-4.535,4.3,16.282,16.282,0,0,1-13.7,0Zm11.4-10.824q0-5.952-4.56-5.952t-4.561,5.952q0,5.952,4.561,5.952T307.846,171.849Z" fill="#ff3859"/><rect x="328.156" y="139.464" width="4" height="48" fill="#ff3859"/><path d="M358.487,156.161v-2a8,8,0,0,0-6.94,3.26,8,8,0,0,0-6.94-3.26v2a5.622,5.622,0,0,1,6,3.68v10.2h-2v2h2v8.32a5.641,5.641,0,0,1-6,3.68v2a8.1,8.1,0,0,0,6.94-3.26,8.1,8.1,0,0,0,6.94,3.26v-2a5.639,5.639,0,0,1-5.88-3.68V172h2v-2h-2v-10.16A5.62,5.62,0,0,1,358.487,156.161Z" fill="#212159"/><circle cx="87.339" cy="272.422" r="16" fill="#ff3859"/><circle cx="130.217" cy="272.422" r="16" fill="#f37b20"/><circle cx="173.095" cy="272.422" r="16" fill="#f8d110"/><circle cx="215.973" cy="272.422" r="16" fill="#6bcc50"/><circle cx="258.851" cy="272.422" r="16" fill="#0cc2ed"/><circle cx="301.729" cy="272.422" r="16" fill="#486ee5"/><circle cx="344.607" cy="272.422" r="16" fill="#bf56d8"/><path d="M342.024,297.761c-.568-.718-1.258-2.186-2.486-3.968-.7-1.008-2.422-2.906-2.936-3.87a2.529,2.529,0,0,1-.292-1.94,2.636,2.636,0,0,1,2.85-2.1,5.321,5.321,0,0,1,2.71,1.432,12.777,12.777,0,0,1,1.42,1.576c.326.392.406.554.754,1.018.46.614.6.918.428.242-.142-.992-.374-2.686-.71-4.184-.256-1.136-.318-1.314-.562-2.186-.258-.928-.39-1.578-.632-2.562a28.319,28.319,0,0,1-.552-2.918c-.114-1.094-.174-2.878.528-3.7a2.371,2.371,0,0,1,2.594-.44,5.272,5.272,0,0,1,1.872,2.6,15.467,15.467,0,0,1,1.032,3.922c.328,2.062.932,4.924.952,5.526.048-.738-.136-2.292-.008-3a2.148,2.148,0,0,1,1.332-1.59,3.893,3.893,0,0,1,1.832-.11,2.531,2.531,0,0,1,1.532,1,10.835,10.835,0,0,1,.768,3.662c.172-.752.142-2.458.568-3.168a2.49,2.49,0,0,1,1.374-.958,5.567,5.567,0,0,1,1.928-.016,2.815,2.815,0,0,1,1.354.974,11.033,11.033,0,0,1,.758,3.316c.03.282.148-.784.586-1.472a2.069,2.069,0,0,1,3.8,1.278c.05,1.308.04,1.248.04,2.128,0,1.034-.024,1.656-.08,2.4a23.488,23.488,0,0,1-.484,3.484,11.812,11.812,0,0,1-1.3,2.768s-2.148,2.5-2.382,3.626a8,8,0,0,0-.2,1.93,6.992,6.992,0,0,0,.242,1.844,11.691,11.691,0,0,1-2.468.07c-.782-.126-1.75-1.682-2-2.158a.758.758,0,0,0-1.364-.046c-.45.766-1.418,2.14-2.1,2.226-1.336.168-4.108.062-6.278.04,0,0,.37-2.022-.454-2.716-.61-.518-1.66-1.568-2.288-2.12Z" fill="#212159" stroke="#212159" stroke-linejoin="round" stroke-width="1.5" fill-rule="evenodd"/><path d="M344.024,295.761c-.568-.718-1.258-2.186-2.486-3.968-.7-1.008-2.422-2.906-2.936-3.87a2.529,2.529,0,0,1-.292-1.94,2.636,2.636,0,0,1,2.85-2.1,5.321,5.321,0,0,1,2.71,1.432,12.777,12.777,0,0,1,1.42,1.576c.326.392.406.554.754,1.018.46.614.6.918.428.242-.142-.992-.374-2.686-.71-4.184-.256-1.136-.318-1.314-.562-2.186-.258-.928-.39-1.578-.632-2.562a28.319,28.319,0,0,1-.552-2.918c-.114-1.094-.174-2.878.528-3.7a2.371,2.371,0,0,1,2.594-.44,5.272,5.272,0,0,1,1.872,2.6,15.467,15.467,0,0,1,1.032,3.922c.328,2.062.932,4.924.952,5.526.048-.738-.136-2.292-.008-3a2.148,2.148,0,0,1,1.332-1.59,3.893,3.893,0,0,1,1.832-.11,2.531,2.531,0,0,1,1.532,1,10.835,10.835,0,0,1,.768,3.662c.172-.752.142-2.458.568-3.168a2.49,2.49,0,0,1,1.374-.958,5.567,5.567,0,0,1,1.928-.016,2.815,2.815,0,0,1,1.354.974,11.033,11.033,0,0,1,.758,3.316c.03.282.148-.784.586-1.472a2.069,2.069,0,0,1,3.8,1.278c.05,1.308.04,1.248.04,2.128,0,1.034-.024,1.656-.08,2.4a23.488,23.488,0,0,1-.484,3.484,11.812,11.812,0,0,1-1.3,2.768s-2.148,2.5-2.382,3.626a8,8,0,0,0-.2,1.93,6.992,6.992,0,0,0,.242,1.844,11.691,11.691,0,0,1-2.468.07c-.782-.126-1.75-1.682-2-2.158a.758.758,0,0,0-1.364-.046c-.45.766-1.418,2.14-2.1,2.226-1.336.168-4.108.062-6.278.04,0,0,.37-2.022-.454-2.716-.61-.518-1.66-1.568-2.288-2.12Z" fill="#fff" fill-rule="evenodd"/><path d="M344.024,295.761c-.568-.718-1.258-2.186-2.486-3.968-.7-1.008-2.422-2.906-2.936-3.87a2.529,2.529,0,0,1-.292-1.94,2.636,2.636,0,0,1,2.85-2.1,5.321,5.321,0,0,1,2.71,1.432,12.777,12.777,0,0,1,1.42,1.576c.326.392.406.554.754,1.018.46.614.6.918.428.242-.142-.992-.374-2.686-.71-4.184-.256-1.136-.318-1.314-.562-2.186-.258-.928-.39-1.578-.632-2.562a28.319,28.319,0,0,1-.552-2.918c-.114-1.094-.174-2.878.528-3.7a2.371,2.371,0,0,1,2.594-.44,5.272,5.272,0,0,1,1.872,2.6,15.467,15.467,0,0,1,1.032,3.922c.328,2.062.932,4.924.952,5.526.048-.738-.136-2.292-.008-3a2.148,2.148,0,0,1,1.332-1.59,3.893,3.893,0,0,1,1.832-.11,2.531,2.531,0,0,1,1.532,1,10.835,10.835,0,0,1,.768,3.662c.172-.752.142-2.458.568-3.168a2.49,2.49,0,0,1,1.374-.958,5.567,5.567,0,0,1,1.928-.016,2.815,2.815,0,0,1,1.354.974,11.033,11.033,0,0,1,.758,3.316c.03.282.148-.784.586-1.472a2.069,2.069,0,0,1,3.8,1.278c.05,1.308.04,1.248.04,2.128,0,1.034-.024,1.656-.08,2.4a23.488,23.488,0,0,1-.484,3.484,11.812,11.812,0,0,1-1.3,2.768s-2.148,2.5-2.382,3.626a8,8,0,0,0-.2,1.93,6.992,6.992,0,0,0,.242,1.844,11.691,11.691,0,0,1-2.468.07c-.782-.126-1.75-1.682-2-2.158a.758.758,0,0,0-1.364-.046c-.45.766-1.418,2.14-2.1,2.226-1.336.168-4.108.062-6.278.04,0,0,.37-2.022-.454-2.716-.61-.518-1.66-1.568-2.288-2.12l-1.664-1.842Z" fill="none" stroke="#212159" stroke-linecap="round" stroke-linejoin="round" stroke-width="1.5"/><path d="M360.494,296.47v-6.918" fill="none" stroke="#212159" stroke-linecap="round" stroke-width="1.5"/><path d="M356.463,296.493l-.032-6.946" fill="none" stroke="#212159" stroke-linecap="round" stroke-width="1.5"/><path d="M352.47,289.611l.042,6.852" fill="none" stroke="#212159" stroke-linecap="round" stroke-width="1.5"/></svg>