<svg xmlns="http://www.w3.org/2000/svg" xmlns:xlink="http://www.w3.org/1999/xlink" viewBox="0 0 440 440"><defs><clipPath id="a"><circle cx="218.416" cy="251.329" r="126.126" fill="none"/></clipPath><mask id="b" x="174.87" y="207.685" width="87.091" height="87.091" maskUnits="userSpaceOnUse"><rect x="174.87" y="207.685" width="87.091" height="87.091"/><rect x="190.314" y="223.129" width="56.204" height="56.204" fill="#fff"/><path d="M225.338,234.988l-.372-.372h0l-.372-.372a.239.239,0,0,0-.338.339l.2.2-1.977,1.976a.843.843,0,0,0-.405-.1h-.012a.844.844,0,0,0-1.442-.61l-.154.154v-.218a69.116,69.116,0,0,1-2.057-.845.843.843,0,0,1-1.212,0,.846.846,0,0,0-.845.845v.217l-.154-.153a.846.846,0,0,0-1.443.6v.013h-.012a.834.834,0,0,0-.422.114l-1.989-1.989.2-.2a.239.239,0,1,0-.338-.338l-.359.358-.015.013-.012.014-.358.359a.239.239,0,1,0,.338.338l.2-.2,2,2a.836.836,0,0,0-.093.386v.013a.844.844,0,0,0-.61,1.442l.154.153h-.217a62.768,62.768,0,0,1-.846,2.058.841.841,0,0,1,0,1.212.845.845,0,0,0,.846.844h.217l-.154.154a.846.846,0,0,0,.6,1.443h.013a.831.831,0,0,0,.1.417l-2.18,2.18a.239.239,0,0,0,.338.338l2.18-2.18a.837.837,0,0,0,.4.1h.013a.844.844,0,0,0,.844.858h0a.836.836,0,0,0,.6-.248l.154-.153v.217a69.116,69.116,0,0,1,2.057.845.843.843,0,0,1,1.212,0,.846.846,0,0,0,.845-.845v-.217l.154.153a.846.846,0,0,0,1.443-.6v-.013h.013a.848.848,0,0,0,.385-.093l2.17,2.17a.242.242,0,0,0,.169.07.24.24,0,0,0,.169-.409l-2.162-2.162a.833.833,0,0,0,.114-.421v-.013h.013a.845.845,0,0,0,.6-1.442l-.154-.154h.218a69.116,69.116,0,0,1,.845-2.057.843.843,0,0,1,0-1.212.846.846,0,0,0-.845-.845h-.218l.154-.154a.846.846,0,0,0-.6-1.443h-.012a.848.848,0,0,0-.1-.416l1.977-1.977.2.2a.239.239,0,0,0,.338,0A.239.239,0,0,0,225.338,234.988Zm-5.714.632a.367.367,0,0,1,.367.366v.7l-.734.734v-1.43A.367.367,0,0,1,219.624,235.62Zm-1.212,0a.367.367,0,0,1,.367.366v1.908l-.734.734v-2.642A.367.367,0,0,1,218.412,235.62Zm-1.579.366a.367.367,0,0,1,.734,0v3.12l-.734.734Zm-1.6.662a.367.367,0,0,1,.626-.26l.492.492v1.038l-1.011-1.011A.364.364,0,0,1,215.237,236.648Zm-.857.857a.367.367,0,0,1,.626-.26l1.307,1.308a.259.259,0,0,0,.042.032v.528h-.519l-1.349-1.349A.364.364,0,0,1,214.38,237.505Zm-.75,1.116a.367.367,0,0,1,.519-.519l1.011,1.011h-1.038Zm-.769,1.337a.368.368,0,0,1,.367-.367h3.127v.727l-.007.007h-3.12A.368.368,0,0,1,212.861,239.958Zm0,1.212a.368.368,0,0,1,.367-.367h2.642l-.734.734h-1.908A.368.368,0,0,1,212.861,241.17Zm.367,1.579a.367.367,0,0,1,0-.734h1.43l-.734.734Zm.662,1.6a.367.367,0,0,1-.26-.626l3.133-3.133h0l4.2-4.2a.367.367,0,1,1,.519.519l-7.331,7.331A.364.364,0,0,1,213.89,244.345Zm3.31,2.376a.368.368,0,0,1-.367-.367v-.7l.734-.734v1.43A.368.368,0,0,1,217.2,246.721Zm1.212,0a.368.368,0,0,1-.367-.367v-1.908l.734-.733v2.641A.368.368,0,0,1,218.412,246.721Zm1.579-.367a.367.367,0,1,1-.734,0v-3.12l.734-.734Zm1.489-.4a.366.366,0,0,1-.519,0l-.465-.466-.027.027v-1.091l.5.5h0l.511.511,0,0a.368.368,0,0,1,0,.516Zm.965-1.117a.368.368,0,0,1-.627.26l0,0-.508-.508h0l-.838-.838v-.519h.519l1.349,1.349A.368.368,0,0,1,222.445,244.835Zm.749-1.116a.367.367,0,1,1-.519.519l-.255-.256-.256-.255h0l-.5-.5H222.7Zm.768-1.337a.367.367,0,0,1-.366.367h-3.127v-.727l.007-.007h3.12A.367.367,0,0,1,223.962,242.382Zm0-1.212a.367.367,0,0,1-.366.367h-2.642l.734-.734H223.6A.367.367,0,0,1,223.962,241.17Zm-.366-1.579a.367.367,0,0,1,0,.734h-1.43l.734-.734Zm-.662-1.6a.367.367,0,0,1,.26.626l-4.345,4.345h0l-2.986,2.986a.369.369,0,0,1-.26.108.368.368,0,0,1-.259-.627l7.331-7.331A.365.365,0,0,1,222.934,238Zm-.6-.231-7.331,7.331a.367.367,0,0,1-.519-.519h0l7.331-7.331a.367.367,0,0,1,.519.519Z"/><path d="M205.892,255.5l.733-3.127a2.464,2.464,0,0,1-.77-.266h0v-.348h2.311v.348a1.7,1.7,0,0,1-.33.165,2.542,2.542,0,0,1-.34.1h0l-1.622,5.8-.954.11-1.421-4.438-1.384,4.328-.963.11-1.788-5.914a1.767,1.767,0,0,1-.357-.1,2.185,2.185,0,0,1-.312-.161h0v-.348h2.97v.348a2.545,2.545,0,0,1-.353.152,3.493,3.493,0,0,1-.408.114h0l.853,3.237.193,1.191h.018l.321-1.237,1.219-3.805h.541l1.3,3.759.312,1.192h.018Zm3.731-.532h0a4.206,4.206,0,0,1,.2-1.325,2.973,2.973,0,0,1,.6-1.054,2.7,2.7,0,0,1,.972-.693,3.348,3.348,0,0,1,1.329-.247h0a3.35,3.35,0,0,1,1.33.247,2.653,2.653,0,0,1,.967.693,2.994,2.994,0,0,1,.591,1.054,4.178,4.178,0,0,1,.2,1.325h0a4.182,4.182,0,0,1-.2,1.325,3.012,3.012,0,0,1-.591,1.054,2.662,2.662,0,0,1-.967.692,3.349,3.349,0,0,1-1.33.248h0a3.348,3.348,0,0,1-1.329-.248,2.707,2.707,0,0,1-.972-.692,2.99,2.99,0,0,1-.6-1.054A4.211,4.211,0,0,1,209.623,254.97Zm1.559,0h0a6.033,6.033,0,0,0,.092,1.086,2.863,2.863,0,0,0,.289.862,1.568,1.568,0,0,0,.5.568,1.29,1.29,0,0,0,.738.207h0a1.079,1.079,0,0,0,.669-.207,1.5,1.5,0,0,0,.449-.568,3.022,3.022,0,0,0,.252-.862,7.054,7.054,0,0,0,.078-1.086h0a6.351,6.351,0,0,0-.087-1.087,2.961,2.961,0,0,0-.275-.862,1.5,1.5,0,0,0-.5-.568,1.306,1.306,0,0,0-.747-.206h0a1.168,1.168,0,0,0-.706.206,1.447,1.447,0,0,0-.454.568,3.008,3.008,0,0,0-.238.862A7.973,7.973,0,0,0,211.182,254.97Zm6.455,0h0a4.206,4.206,0,0,1,.2-1.325,2.973,2.973,0,0,1,.6-1.054,2.7,2.7,0,0,1,.972-.693,3.348,3.348,0,0,1,1.329-.247h0a3.35,3.35,0,0,1,1.33.247,2.653,2.653,0,0,1,.967.693,2.994,2.994,0,0,1,.591,1.054,4.178,4.178,0,0,1,.2,1.325h0a4.182,4.182,0,0,1-.2,1.325,3.012,3.012,0,0,1-.591,1.054,2.662,2.662,0,0,1-.967.692,3.349,3.349,0,0,1-1.33.248h0a3.348,3.348,0,0,1-1.329-.248,2.707,2.707,0,0,1-.972-.692,2.99,2.99,0,0,1-.6-1.054A4.211,4.211,0,0,1,217.637,254.97Zm1.558,0h0a6.033,6.033,0,0,0,.092,1.086,2.863,2.863,0,0,0,.289.862,1.568,1.568,0,0,0,.5.568,1.29,1.29,0,0,0,.738.207h0a1.079,1.079,0,0,0,.669-.207,1.5,1.5,0,0,0,.449-.568,3.054,3.054,0,0,0,.253-.862,7.054,7.054,0,0,0,.078-1.086h0a6.351,6.351,0,0,0-.087-1.087,2.991,2.991,0,0,0-.276-.862,1.5,1.5,0,0,0-.5-.568,1.3,1.3,0,0,0-.747-.206h0a1.168,1.168,0,0,0-.706.206,1.447,1.447,0,0,0-.454.568,3.008,3.008,0,0,0-.238.862A7.973,7.973,0,0,0,219.2,254.97Zm6.28-2.861v-.348h3.008v.348a2.391,2.391,0,0,1-.427.17,2.826,2.826,0,0,1-.453.1h0v5.208h1.769l.614-1.641h.376q.037.21.069.5t.05.6q.019.31.028.614c.006.2.006.379,0,.532h-5.034v-.349a2.991,2.991,0,0,1,.4-.174,2.311,2.311,0,0,1,.353-.092h0v-5.189a1.981,1.981,0,0,1-.752-.266Zm10.416,0v-.348h2.246v.348a3.226,3.226,0,0,1-.307.161,1.3,1.3,0,0,1-.344.1h0l-1.779,3.117v2.072a1.217,1.217,0,0,1,.362.1,3.08,3.08,0,0,1,.335.169h0v.349H233.58v-.349a3.1,3.1,0,0,1,.349-.156,2.215,2.215,0,0,1,.4-.11h0V255.5l-1.852-3.127a2.038,2.038,0,0,1-.4-.11,3.363,3.363,0,0,1-.344-.156h0v-.348h3.008v.348q-.129.073-.294.147a1.861,1.861,0,0,1-.385.119h0l1.311,2.457,1.247-2.457a2.726,2.726,0,0,1-.4-.119,2.8,2.8,0,0,1-.33-.147Zm-31.877,10.2.542-2.311a1.8,1.8,0,0,1-.569-.2h0v-.258h1.707v.258a1.294,1.294,0,0,1-.244.122,2.052,2.052,0,0,1-.25.074h0l-1.2,4.289-.7.082-1.051-3.28-1.023,3.2-.711.082L199.189,260a1.33,1.33,0,0,1-.264-.078,1.606,1.606,0,0,1-.23-.118h0v-.258h2.195v.258a1.877,1.877,0,0,1-.261.112,2.424,2.424,0,0,1-.3.084h0l.63,2.392.142.881h.014l.237-.915.9-2.812h.4l.962,2.778.23.881h.014Zm2.758-.393h0a3.082,3.082,0,0,1,.149-.979,2.191,2.191,0,0,1,.44-.779,1.988,1.988,0,0,1,.718-.512,2.476,2.476,0,0,1,.983-.183h0a2.471,2.471,0,0,1,.982.183,1.951,1.951,0,0,1,.715.512,2.215,2.215,0,0,1,.437.779,3.082,3.082,0,0,1,.149.979h0a3.082,3.082,0,0,1-.149.979,2.224,2.224,0,0,1-.437.779,1.963,1.963,0,0,1-.715.512,2.471,2.471,0,0,1-.982.183h0a2.476,2.476,0,0,1-.983-.183,2,2,0,0,1-.718-.512,2.2,2.2,0,0,1-.44-.779A3.082,3.082,0,0,1,206.772,261.914Zm1.152,0h0a4.473,4.473,0,0,0,.067.8,2.139,2.139,0,0,0,.214.637,1.172,1.172,0,0,0,.372.42.956.956,0,0,0,.546.152h0a.8.8,0,0,0,.494-.152,1.123,1.123,0,0,0,.333-.42,2.336,2.336,0,0,0,.186-.637,5.276,5.276,0,0,0,.057-.8h0a4.676,4.676,0,0,0-.064-.8,2.219,2.219,0,0,0-.2-.637,1.121,1.121,0,0,0-.366-.42.965.965,0,0,0-.552-.153h0a.863.863,0,0,0-.522.153,1.073,1.073,0,0,0-.336.42,2.232,2.232,0,0,0-.176.637A5.893,5.893,0,0,0,207.924,261.914Zm7.826-2.114v-.258h1.68v.258a1.637,1.637,0,0,1-.285.179,1.845,1.845,0,0,1-.291.119h0v4.269h-.576l-2.392-3.456-.271-.522h-.02l.061.542v2.826a1.7,1.7,0,0,1,.3.112,1.89,1.89,0,0,1,.282.159h0v.257h-1.674v-.257a2.328,2.328,0,0,1,.268-.153,2.112,2.112,0,0,1,.3-.118h0v-3.7c-.09-.036-.181-.077-.271-.122a1.986,1.986,0,0,1-.244-.142h0v-.251h1.464l1.944,2.819.312.583h.027l-.034-.583V260.1a2.28,2.28,0,0,1-.315-.132,1.722,1.722,0,0,1-.267-.166Zm3.509,4.485h-.745v-.257a1.537,1.537,0,0,1,.258-.119,1.859,1.859,0,0,1,.3-.078h0V260a2.44,2.44,0,0,1-.3-.084,1.556,1.556,0,0,1-.254-.112h0v-.258h.786q.115,0,.285-.006l.352-.017.356-.021c.115-.007.213-.01.294-.01h0a3.3,3.3,0,0,1,1.054.156,2.131,2.131,0,0,1,.786.454,1.965,1.965,0,0,1,.5.739,2.769,2.769,0,0,1,.173,1.016h0a3.066,3.066,0,0,1-.163,1.023,2.063,2.063,0,0,1-.488.786,2.2,2.2,0,0,1-.823.5,3.44,3.44,0,0,1-1.169.179h0c-.059,0-.138,0-.237-.01l-.319-.02-.338-.02c-.113-.007-.213-.011-.3-.011Zm1.24-4.356h0c-.081,0-.162,0-.244.006s-.151.012-.21.021h0v3.923a.62.62,0,0,0,.095.01l.139.007.139.007.1,0h0a1.28,1.28,0,0,0,.667-.163,1.335,1.335,0,0,0,.451-.44,2,2,0,0,0,.257-.651,3.715,3.715,0,0,0,.082-.792h0a3.037,3.037,0,0,0-.085-.719,2.009,2.009,0,0,0-.261-.616,1.278,1.278,0,0,0-1.132-.6Zm3.815-.387h3.564q-.013.306-.047.63c-.023.217-.052.421-.088.61h-.278l-.312-.8h-1.267v1.66h.827l.3-.522h.217c.022.221.034.468.034.739s-.012.524-.034.759h-.217l-.3-.536h-.827v1.762h1.322l.359-.861h.277c.018.086.037.183.055.292s.032.22.044.335.02.232.027.349.01.226.01.325h-3.666v-.257a2.235,2.235,0,0,1,.258-.115,1.7,1.7,0,0,1,.3-.082h0V260a2.36,2.36,0,0,1-.288-.078,1.42,1.42,0,0,1-.268-.118h0Zm6.478,2.69v1.6a1.418,1.418,0,0,1,.278.089l.237.108h0v.257H229.22v-.257a1.667,1.667,0,0,1,.284-.125,2.484,2.484,0,0,1,.272-.072h0V260a2.025,2.025,0,0,1-.556-.2h0v-.258h.718c.09,0,.193,0,.308-.006l.363-.017L231,259.5c.131-.007.258-.01.38-.01h0a2.617,2.617,0,0,1,.687.085,1.584,1.584,0,0,1,.543.254,1.172,1.172,0,0,1,.352.423,1.334,1.334,0,0,1,.125.593h0a1.285,1.285,0,0,1-.237.8,1.425,1.425,0,0,1-.65.467h0q.27.427.575.871t.644.857h0l.325.217v.23h-1.131l-.292-.223a4.35,4.35,0,0,1-.552-.864c-.16-.328-.3-.649-.423-.966h-.549Zm.339-2.3h0a1.164,1.164,0,0,0-.339.04h0v1.891h.4a.8.8,0,0,0,.589-.248,1,1,0,0,0,.244-.735h0a1.2,1.2,0,0,0-.068-.43.774.774,0,0,0-.189-.3.755.755,0,0,0-.285-.169A1.11,1.11,0,0,0,231.131,259.929Zm4.275,2.8.278,1a.757.757,0,0,0,.21.139.842.842,0,0,0,.359.064h0a.974.974,0,0,0,.62-.193.645.645,0,0,0,.248-.539h0a.591.591,0,0,0-.16-.42,1.765,1.765,0,0,0-.4-.311q-.243-.143-.522-.281a3.157,3.157,0,0,1-.521-.329,1.666,1.666,0,0,1-.4-.451,1.212,1.212,0,0,1-.16-.647h0a1.28,1.28,0,0,1,.122-.576,1.125,1.125,0,0,1,.336-.4,1.468,1.468,0,0,1,.5-.237,2.44,2.44,0,0,1,.631-.078h0a4.751,4.751,0,0,1,.769.058,2.729,2.729,0,0,1,.64.179h0c0,.091-.012.194-.024.312s-.026.234-.044.349-.037.223-.057.325-.04.186-.058.254h-.278l-.311-.928a1.1,1.1,0,0,0-.241-.075,1.617,1.617,0,0,0-.329-.034h0a.771.771,0,0,0-.481.15.509.509,0,0,0-.2.433h0a.629.629,0,0,0,.162.437,1.85,1.85,0,0,0,.407.329q.245.149.532.3a3.3,3.3,0,0,1,.532.335,1.765,1.765,0,0,1,.406.444,1.134,1.134,0,0,1,.163.627h0A1.27,1.27,0,0,1,237.68,264a2.1,2.1,0,0,1-1.345.37h0a3.708,3.708,0,0,1-.854-.1,3.327,3.327,0,0,1-.349-.1.764.764,0,0,1-.227-.115h0a3.067,3.067,0,0,1,.034-.335c.018-.12.037-.24.057-.359s.042-.234.065-.342.045-.2.067-.285h.278Z"/><path d="M206.354,266.633a.027.027,0,0,1,.023.009.021.021,0,0,1,0,.023h0l-.483,1.672a.04.04,0,0,1-.045.03h-.114c-.028,0-.045-.009-.05-.028h0l-.4-1.4c0-.008,0-.012,0-.012s0,0-.006.012h0l-.4,1.4a.042.042,0,0,1-.045.03h-.117c-.028,0-.044-.009-.049-.028h0l-.474-1.671,0,0,0,0h0c0-.017.009-.025.028-.025h.112a.043.043,0,0,1,.023,0,.039.039,0,0,1,.012.019h0l.4,1.44c.005.016.009.024.014.024h0s.009-.009.014-.026h0l.409-1.44a.041.041,0,0,1,.038-.021h.1a.028.028,0,0,1,.035.023h0l.4,1.442c0,.015.009.022.014.022h0s.009-.007.014-.022h0l.409-1.444c0-.014.015-.021.035-.021h.094Zm.414,1.734a.019.019,0,0,1-.018-.008.027.027,0,0,1,0-.024h0l.61-1.672a.054.054,0,0,1,.016-.023.042.042,0,0,1,.026-.007h.14c.027,0,.043.01.049.03h0l.6,1.672a.036.036,0,0,1,0,.011h0a.019.019,0,0,1-.021.021h-.122a.033.033,0,0,1-.035-.021h0l-.173-.481a.024.024,0,0,0-.025-.019h-.711a.026.026,0,0,0-.026.019h0l-.178.484q0,.018-.03.018h-.107Zm.388-.664h.612c.016,0,.021-.008.016-.025h0l-.3-.83c0-.014-.01-.021-.016-.021h0c-.007,0-.013.007-.019.023h0l-.306.83,0,.014h0c0,.006.006.009.019.009Zm2.732.625,0,.011h0a.032.032,0,0,1-.007.02.022.022,0,0,1-.019.008h-.128a.035.035,0,0,1-.033-.025h0l-.316-.756a.031.031,0,0,0-.016-.019.082.082,0,0,0-.035-.006H208.9c-.019,0-.028.008-.028.025h0v.749a.026.026,0,0,1-.031.032h-.114c-.02,0-.031-.009-.031-.028h0v-1.678a.029.029,0,0,1,.006-.022.028.028,0,0,1,.02-.006h.631a.659.659,0,0,1,.415.113.39.39,0,0,1,.146.329h0a.426.426,0,0,1-.1.3.528.528,0,0,1-.245.152h0c-.01,0-.013.008-.01.021h0Zm-.612-.9a.586.586,0,0,0,.34-.079.289.289,0,0,0,.111-.253h0c0-.216-.128-.325-.386-.325H208.9q-.03,0-.03.021h0v.61c0,.018.007.026.021.026h.388Zm1.195.942a.026.026,0,0,1-.029-.03h0v-1.676a.029.029,0,0,1,.006-.022.028.028,0,0,1,.02-.006h.157a.049.049,0,0,1,.024,0,.034.034,0,0,1,.013.019h0l.561,1.431c.008.015.014.023.019.023h0c.005,0,.011-.008.019-.023h0l.566-1.429a.028.028,0,0,1,.03-.025h.168c.016,0,.024.009.024.028h0v1.676a.027.027,0,0,1-.031.03H211.9a.03.03,0,0,1-.022-.006.029.029,0,0,1-.006-.022h0V266.96c0-.006,0-.009,0-.008a.009.009,0,0,0-.007.008h0l-.543,1.379a.037.037,0,0,1-.04.028h-.093a.057.057,0,0,1-.029-.006.042.042,0,0,1-.018-.019h0l-.531-1.368c0-.008,0-.012-.007-.012s0,0,0,.012h0v1.368a.024.024,0,0,1-.006.019.03.03,0,0,1-.022.006h-.1Zm2.23-1.734h.126a.024.024,0,0,1,.019.006.037.037,0,0,1,0,.022h0v1.671c0,.014,0,.024-.007.028s-.014.007-.028.007h-.107a.041.041,0,0,1-.026-.006s-.007-.011-.007-.022h0v-1.678a.029.029,0,0,1,.006-.022.027.027,0,0,1,.02-.006Zm1.926,0h.108a.022.022,0,0,1,.018.006.029.029,0,0,1,.005.019h0v1.684c0,.017-.009.025-.026.025h-.093a.038.038,0,0,1-.035-.016h0l-.942-1.379c-.008-.011-.015-.016-.02-.014s-.008.007-.008.016h0v1.368c0,.017-.01.025-.028.025h-.1a.03.03,0,0,1-.022-.006.029.029,0,0,1-.006-.022h0v-1.678a.029.029,0,0,1,.006-.022.027.027,0,0,1,.02-.006h.1a.07.07,0,0,1,.024,0,.044.044,0,0,1,.018.018h0l.926,1.36a.026.026,0,0,0,.021.014h0l.009-.006a.021.021,0,0,0,.005-.015h0v-1.349c0-.017.008-.025.023-.025Zm1.389,1.758a.647.647,0,0,1-.626-.412,1.206,1.206,0,0,1-.085-.472h0a1.2,1.2,0,0,1,.088-.483.654.654,0,0,1,.63-.415h0a.661.661,0,0,1,.286.065.636.636,0,0,1,.226.17.446.446,0,0,1,.1.226h0v.014a.015.015,0,0,1-.014.016h0l-.133.021h0c-.008,0-.013-.006-.016-.018h0a.42.42,0,0,0-.153-.252.458.458,0,0,0-.3-.1h0a.453.453,0,0,0-.393.192.941.941,0,0,0-.137.551h0a.961.961,0,0,0,.137.565.459.459,0,0,0,.4.19h0a.477.477,0,0,0,.264-.07.46.46,0,0,0,.166-.177.489.489,0,0,0,.061-.216h0v-.161c0-.013-.008-.019-.023-.019h-.407c-.014,0-.021-.006-.021-.019h0v-.081c0-.013,0-.019.016-.019h.571c.017,0,.025.008.025.023h0v.83c0,.019-.008.028-.025.028h-.05a.06.06,0,0,1-.025,0,.029.029,0,0,1-.012-.021h0l-.014-.229c0-.008,0-.012-.008-.012s-.008,0-.013.012h0a.569.569,0,0,1-.2.2.6.6,0,0,1-.313.077Zm1.734-1.639v-.1c0-.016.008-.023.024-.023h1.234c.016,0,.024.007.024.023h0v.1q0,.021-.024.021h-.484a.044.044,0,0,0-.019,0,.026.026,0,0,0,0,.018h0v1.545a.029.029,0,0,1-.006.022.028.028,0,0,1-.02.006h-.126a.027.027,0,0,1-.02-.006.029.029,0,0,1-.006-.022h0v-1.545c0-.009,0-.015,0-.018a.036.036,0,0,0-.018,0h-.526q-.024,0-.024-.021Zm2.794.785h-.832a.017.017,0,0,0-.014.006.021.021,0,0,0,0,.013h0v.783c0,.019-.01.028-.03.028h-.117a.024.024,0,0,1-.028-.028h0v-1.678a.029.029,0,0,1,.006-.022.024.024,0,0,1,.019-.006h.127a.022.022,0,0,1,.018.006s.005.011.005.022h0v.708q0,.016.006.021a.032.032,0,0,0,.02,0h.823a.021.021,0,0,0,.023-.024h0v-.713c0-.017.007-.025.021-.025h.129a.028.028,0,0,1,.02.006.035.035,0,0,1,0,.022h0v1.678a.024.024,0,0,1-.028.028H220.6c-.02,0-.03-.009-.03-.028h0v-.781a.019.019,0,0,0-.021-.021Zm.823-.876a.029.029,0,0,1,.006-.022.027.027,0,0,1,.02-.006h1.017a.019.019,0,0,1,.021.021h0l0,.1a.026.026,0,0,1,0,.018.031.031,0,0,1-.019.005h-.835a.037.037,0,0,0-.022,0s-.006.01-.006.021h0v.6c0,.01,0,.016.006.019a.034.034,0,0,0,.02,0h.634a.019.019,0,0,1,.016,0,.022.022,0,0,1,0,.016h0v.1c0,.008,0,.013,0,.015a.024.024,0,0,1-.016,0h-.636a.03.03,0,0,0-.018,0,.025.025,0,0,0-.006.019h0v.62a.026.026,0,0,0,0,.018s.009,0,.019,0h.872a.03.03,0,0,1,.019,0s.006.008.006.017h0v.1c0,.014-.007.021-.023.021H221.4a.03.03,0,0,1-.022-.006.029.029,0,0,1-.006-.022h0Zm4.278-.028a.026.026,0,0,1,.023.009.023.023,0,0,1,0,.023h0l-.484,1.672a.04.04,0,0,1-.045.03h-.114c-.028,0-.045-.009-.049-.028h0l-.4-1.4q0-.012-.006-.012s0,0-.006.012h0l-.4,1.4a.042.042,0,0,1-.045.03h-.116c-.029,0-.045-.009-.049-.028h0l-.475-1.671v-.01h0c0-.017.009-.025.028-.025h.112a.049.049,0,0,1,.024,0,.048.048,0,0,1,.011.019h0l.4,1.44c0,.016.01.024.014.024h0s.01-.009.014-.026h0l.41-1.44a.038.038,0,0,1,.037-.021h.1a.043.043,0,0,1,.023,0,.039.039,0,0,1,.012.019h0l.4,1.442c0,.015.01.022.014.022h0c.005,0,.01-.007.014-.022h0l.409-1.444c0-.014.015-.021.036-.021h.093Zm1.171,1.758a.662.662,0,0,1-.535-.229.991.991,0,0,1-.192-.653h0a1.211,1.211,0,0,1,.088-.487.66.66,0,0,1,.252-.307.7.7,0,0,1,.39-.106h0a.708.708,0,0,1,.387.1.659.659,0,0,1,.248.3,1.226,1.226,0,0,1,.087.487h0a1,1,0,0,1-.192.655.654.654,0,0,1-.533.231Zm0-.143a.467.467,0,0,0,.4-.182.955.955,0,0,0,.133-.561h0q0-.756-.537-.755h0q-.546,0-.545.755h0q0,.743.547.743Zm2.466.08,0,.011h0a.032.032,0,0,1-.007.02.022.022,0,0,1-.019.008h-.129a.034.034,0,0,1-.032-.025h0l-.316-.756a.034.034,0,0,0-.016-.019.082.082,0,0,0-.035-.006h-.442c-.019,0-.028.008-.028.025h0v.749a.037.037,0,0,1-.007.025.033.033,0,0,1-.024.007h-.114c-.02,0-.031-.009-.031-.028h0v-1.678a.029.029,0,0,1,.006-.022.028.028,0,0,1,.02-.006h.631a.661.661,0,0,1,.415.113.39.39,0,0,1,.146.329h0a.426.426,0,0,1-.1.3.526.526,0,0,1-.246.152h0q-.013,0-.009.021h0Zm-.612-.9a.586.586,0,0,0,.34-.079.289.289,0,0,0,.111-.253h0c0-.216-.129-.325-.386-.325H228.3q-.03,0-.03.021h0v.61c0,.018.007.026.021.026h.388Zm1.166-.764a.029.029,0,0,1,.006-.022.028.028,0,0,1,.02-.006h.126c.01,0,.016,0,.019.006a.035.035,0,0,1,0,.022h0V268.2a.026.026,0,0,0,0,.018s.01,0,.019,0h.825c.01,0,.016,0,.019,0s.005.008.005.017h0v.1q0,.021-.024.021h-1a.025.025,0,0,1-.028-.028h0Zm1.562-.028.327,0a.982.982,0,0,1,.692.214.849.849,0,0,1,.218.639h0a.863.863,0,0,1-.232.663,1,1,0,0,1-.706.216h-.3c-.019,0-.028-.01-.028-.03h0v-1.679c0-.017.009-.025.028-.025Zm.166.14c-.013,0-.019.011-.019.033h0v1.4c0,.016.01.023.028.023h.1a1.164,1.164,0,0,0,.449-.072.476.476,0,0,0,.247-.233.968.968,0,0,0,.08-.429h0a.957.957,0,0,0-.078-.427.458.458,0,0,0-.238-.221,1.194,1.194,0,0,0-.425-.074h-.145Z"/></mask><radialGradient id="c" cx="-975.305" cy="734.528" r="0.137" gradientTransform="matrix(768, 0, 0, -768, 749252.625, 564307)" gradientUnits="userSpaceOnUse"><stop offset="0" stop-color="#ff9ba7"/><stop offset="0.167" stop-color="#ff92a8"/><stop offset="0.333" stop-color="#ff88a9"/><stop offset="0.5" stop-color="#ff7eab"/><stop offset="0.667" stop-color="#f774ae"/><stop offset="0.833" stop-color="#ef6cb1"/><stop offset="1" stop-color="#e566b6"/></radialGradient></defs><circle cx="220.068" cy="221.203" r="198.292" fill="#fff"/><rect x="78.892" y="108.397" width="81.488" height="46.884" rx="4" fill="#afbfdb"/><rect x="78.892" y="168.142" width="81.488" height="46.884" rx="4" fill="#c0dadd"/><rect x="177.672" y="108.397" width="81.488" height="46.884" rx="4" fill="#c6e0c9"/><rect x="276.451" y="108.397" width="81.488" height="46.884" rx="4" fill="#c0dadd"/><rect x="177.672" y="168.142" width="81.488" height="46.884" rx="4" fill="#0cc2ed"/><rect x="276.451" y="168.142" width="81.488" height="46.884" rx="4" fill="#9edadd"/><rect x="78.892" y="227.887" width="81.488" height="46.884" rx="4" fill="#afbfdb"/><rect x="78.892" y="287.632" width="81.488" height="46.884" rx="4" fill="#c6e0c9"/><rect x="177.672" y="227.887" width="81.488" height="46.884" rx="4" fill="#34104b"/><rect x="276.451" y="227.887" width="81.488" height="46.884" rx="4" fill="#c0dadd"/><path d="M181.672,287.632H255.16a4,4,0,0,1,4,4v40.884a2,2,0,0,1-2,2H179.672a2,2,0,0,1-2-2V291.632A4,4,0,0,1,181.672,287.632Z" fill="#6bcc50"/><rect x="276.451" y="287.632" width="81.488" height="46.884" rx="4" fill="#9edadd"/><circle cx="218.416" cy="251.329" r="126.126" fill="#fff"/><g clip-path="url(#a)"><path d="M-21.1,107.331H113.956a4,4,0,0,1,4,4v73.156a4,4,0,0,1-4,4H-21.1a2,2,0,0,1-2-2V109.331A2,2,0,0,1-21.1,107.331Z" fill="#78e65a"/><rect x="318.876" y="107.331" width="141.057" height="81.156" rx="4" fill="#486ee5"/><rect x="-23.101" y="210.751" width="141.057" height="81.156" rx="6" fill="#afbfdb"/><path d="M-21.1,314.171H113.956a4,4,0,0,1,4,4v75.156a2,2,0,0,1-2,2H-21.1a2,2,0,0,1-2-2V316.171A2,2,0,0,1-21.1,314.171Z" fill="#f8d110"/><rect x="318.876" y="210.751" width="141.057" height="81.156" rx="6" fill="#c0dadd"/><path d="M322.876,314.171H455.933a4,4,0,0,1,4,4v75.156a2,2,0,0,1-2,2H320.876a2,2,0,0,1-2-2V318.171A4,4,0,0,1,322.876,314.171Z" fill="#0cc2ed"/><rect x="147.887" y="107.331" width="141.057" height="81.156" rx="6" fill="#c6e0c9"/><rect x="147.887" y="210.751" width="141.057" height="81.156" rx="6" fill="#34104b"/><g mask="url(#b)"><rect x="174.87" y="207.685" width="87.091" height="87.091" fill="url(#c)"/></g><rect x="147.887" y="314.171" width="141.057" height="81.156" rx="6" fill="#c0dadd"/></g><path d="M218.416,133.2a118.125,118.125,0,1,1-83.528,34.6,117.352,117.352,0,0,1,83.528-34.6m0-8A126.126,126.126,0,1,0,344.542,251.329,126.127,126.127,0,0,0,218.416,125.2Z" fill="#fff"/><path d="M233.329,296.761c-.568-.718-1.258-2.186-2.486-3.968-.7-1.008-2.422-2.906-2.936-3.87a2.529,2.529,0,0,1-.292-1.94,2.636,2.636,0,0,1,2.85-2.1,5.321,5.321,0,0,1,2.71,1.432,12.777,12.777,0,0,1,1.42,1.576c.326.392.406.554.754,1.018.46.614.6.918.428.242-.142-.992-.374-2.686-.71-4.184-.256-1.136-.318-1.314-.562-2.186-.258-.928-.39-1.578-.632-2.562a28.319,28.319,0,0,1-.552-2.918c-.114-1.094-.174-2.878.528-3.7a2.371,2.371,0,0,1,2.594-.44,5.272,5.272,0,0,1,1.872,2.6,15.467,15.467,0,0,1,1.032,3.922c.328,2.062.932,4.924.952,5.526.048-.738-.136-2.292-.008-3a2.148,2.148,0,0,1,1.332-1.59,3.893,3.893,0,0,1,1.832-.11,2.531,2.531,0,0,1,1.532,1,10.835,10.835,0,0,1,.768,3.662c.172-.752.142-2.458.568-3.168a2.49,2.49,0,0,1,1.374-.958,5.567,5.567,0,0,1,1.928-.016,2.815,2.815,0,0,1,1.354.974,11.033,11.033,0,0,1,.758,3.316c.03.282.148-.784.586-1.472a2.069,2.069,0,0,1,3.8,1.278c.05,1.308.04,1.248.04,2.128,0,1.034-.024,1.656-.08,2.4a23.488,23.488,0,0,1-.484,3.484,11.812,11.812,0,0,1-1.3,2.768s-2.148,2.5-2.382,3.626a8,8,0,0,0-.2,1.93,6.992,6.992,0,0,0,.242,1.844,11.691,11.691,0,0,1-2.468.07c-.782-.126-1.75-1.682-2-2.158a.758.758,0,0,0-1.364-.046c-.45.766-1.418,2.14-2.1,2.226-1.336.168-4.108.062-6.278.04,0,0,.37-2.022-.454-2.716-.61-.518-1.66-1.568-2.288-2.12Z" fill="#212159" stroke="#212159" stroke-linejoin="round" stroke-width="1.5" fill-rule="evenodd"/><path d="M235.329,294.761c-.568-.718-1.258-2.186-2.486-3.968-.7-1.008-2.422-2.906-2.936-3.87a2.529,2.529,0,0,1-.292-1.94,2.636,2.636,0,0,1,2.85-2.1,5.321,5.321,0,0,1,2.71,1.432,12.777,12.777,0,0,1,1.42,1.576c.326.392.406.554.754,1.018.46.614.6.918.428.242-.142-.992-.374-2.686-.71-4.184-.256-1.136-.318-1.314-.562-2.186-.258-.928-.39-1.578-.632-2.562a28.319,28.319,0,0,1-.552-2.918c-.114-1.094-.174-2.878.528-3.7a2.371,2.371,0,0,1,2.594-.44,5.272,5.272,0,0,1,1.872,2.6,15.467,15.467,0,0,1,1.032,3.922c.328,2.062.932,4.924.952,5.526.048-.738-.136-2.292-.008-3a2.148,2.148,0,0,1,1.332-1.59,3.893,3.893,0,0,1,1.832-.11,2.531,2.531,0,0,1,1.532,1,10.835,10.835,0,0,1,.768,3.662c.172-.752.142-2.458.568-3.168a2.49,2.49,0,0,1,1.374-.958,5.567,5.567,0,0,1,1.928-.016,2.815,2.815,0,0,1,1.354.974,11.033,11.033,0,0,1,.758,3.316c.03.282.148-.784.586-1.472a2.069,2.069,0,0,1,3.8,1.278c.05,1.308.04,1.248.04,2.128,0,1.034-.024,1.656-.08,2.4a23.488,23.488,0,0,1-.484,3.484,11.812,11.812,0,0,1-1.3,2.768s-2.148,2.5-2.382,3.626a8,8,0,0,0-.2,1.93,6.992,6.992,0,0,0,.242,1.844,11.691,11.691,0,0,1-2.468.07c-.782-.126-1.75-1.682-2-2.158a.758.758,0,0,0-1.364-.046c-.45.766-1.418,2.14-2.1,2.226-1.336.168-4.108.062-6.278.04,0,0,.37-2.022-.454-2.716-.61-.518-1.66-1.568-2.288-2.12Z" fill="#fff" fill-rule="evenodd"/><path d="M235.329,294.761c-.568-.718-1.258-2.186-2.486-3.968-.7-1.008-2.422-2.906-2.936-3.87a2.529,2.529,0,0,1-.292-1.94,2.636,2.636,0,0,1,2.85-2.1,5.321,5.321,0,0,1,2.71,1.432,12.777,12.777,0,0,1,1.42,1.576c.326.392.406.554.754,1.018.46.614.6.918.428.242-.142-.992-.374-2.686-.71-4.184-.256-1.136-.318-1.314-.562-2.186-.258-.928-.39-1.578-.632-2.562a28.319,28.319,0,0,1-.552-2.918c-.114-1.094-.174-2.878.528-3.7a2.371,2.371,0,0,1,2.594-.44,5.272,5.272,0,0,1,1.872,2.6,15.467,15.467,0,0,1,1.032,3.922c.328,2.062.932,4.924.952,5.526.048-.738-.136-2.292-.008-3a2.148,2.148,0,0,1,1.332-1.59,3.893,3.893,0,0,1,1.832-.11,2.531,2.531,0,0,1,1.532,1,10.835,10.835,0,0,1,.768,3.662c.172-.752.142-2.458.568-3.168a2.49,2.49,0,0,1,1.374-.958,5.567,5.567,0,0,1,1.928-.016,2.815,2.815,0,0,1,1.354.974,11.033,11.033,0,0,1,.758,3.316c.03.282.148-.784.586-1.472a2.069,2.069,0,0,1,3.8,1.278c.05,1.308.04,1.248.04,2.128,0,1.034-.024,1.656-.08,2.4a23.488,23.488,0,0,1-.484,3.484,11.812,11.812,0,0,1-1.3,2.768s-2.148,2.5-2.382,3.626a8,8,0,0,0-.2,1.93,6.992,6.992,0,0,0,.242,1.844,11.691,11.691,0,0,1-2.468.07c-.782-.126-1.75-1.682-2-2.158a.758.758,0,0,0-1.364-.046c-.45.766-1.418,2.14-2.1,2.226-1.336.168-4.108.062-6.278.04,0,0,.37-2.022-.454-2.716-.61-.518-1.66-1.568-2.288-2.12l-1.664-1.842Z" fill="none" stroke="#212159" stroke-linecap="round" stroke-linejoin="round" stroke-width="1.5"/><path d="M251.8,295.47v-6.918" fill="none" stroke="#212159" stroke-linecap="round" stroke-width="1.5"/><path d="M247.768,295.493l-.032-6.946" fill="none" stroke="#212159" stroke-linecap="round" stroke-width="1.5"/><path d="M243.776,288.611l.042,6.852" fill="none" stroke="#212159" stroke-linecap="round" stroke-width="1.5"/></svg>